<?xml version="1.0" encoding="utf-8"?>
<!-- Generator: Adobe Illustrator 16.0.3, SVG Export Plug-In . SVG Version: 6.00 Build 0)  -->
<!DOCTYPE svg PUBLIC "-//W3C//DTD SVG 1.1//EN" "http://www.w3.org/Graphics/SVG/1.1/DTD/svg11.dtd">
<svg version="1.1" id="Layer_1" xmlns="http://www.w3.org/2000/svg" xmlns:xlink="http://www.w3.org/1999/xlink" x="0px" y="0px"
	 width="250px" height="250px" viewBox="0 0 250 250" enable-background="new 0 0 250 250" xml:space="preserve">
<g>
	<g>
		<path d="M236.666,211.667c0,13.75-11.25,25-25,25H38.334c-13.75,0-25-11.25-25-25V38.333c0-13.75,11.25-25,25-25h173.332
			c13.75,0,25,11.25,25,25V211.667z"/>
	</g>
	<path opacity="0.25" fill="#FFFFFF" d="M55.826,18.016c0,0-22.025-3.388-31.737,5.662c-5.878,5.477-6.522,16.288-6.726,29.471
		c-0.593,38.533,0.098,66.51,0.098,66.51s-0.351-45.18,1.972-66.867s6.163-25.371,10.062-28.757
		C36.559,17.898,55.826,18.016,55.826,18.016z"/>
	<path opacity="0.25" fill="#FFFFFF" d="M232.519,190.552c0,0,2.214,19.799,0.2,26.048s-8.703,14.787-17.118,15.717
		s-35.565,0.354-35.565,0.354s28.74,0.157,36.008-2.923s11.49-7.698,13.996-14.173S232.519,190.552,232.519,190.552z"/>
	<path opacity="0.25" fill="#FFFFFF" d="M78.243,18.63c0,0,103.264,1.175,116.449,0.13"/>
	<path opacity="0.25" fill="#FFFFFF" d="M231.608,49.88c0,0-1.175,103.264-0.13,116.449"/>
	<path opacity="0.25" fill="#FFFFFF" d="M78.243,232.66c0,0,65.823,1.175,74.229,0.13"/>
</g>
<g>
	<circle opacity="0.5" fill="#FFFFFF" cx="124.291" cy="125.209" r="20"/>
	<path opacity="0.5" fill="#FFFFFF" d="M113.289,139.235c3.002,2.249,6.73,3.581,10.77,3.581c9.936,0,17.986-8.052,17.986-17.984
		c0-3.249-0.861-6.298-2.369-8.928c0,0,4.146,8.612-5.375,18.135C124.777,143.56,113.289,139.235,113.289,139.235z"/>
</g>
<g>
	<circle opacity="0.5" fill="#FFFFFF" cx="188.127" cy="183.876" r="20"/>
	<path opacity="0.5" fill="#FFFFFF" d="M177.125,197.902c3.002,2.249,6.73,3.581,10.77,3.581c9.936,0,17.986-8.052,17.986-17.984
		c0-3.249-0.861-6.298-2.369-8.928c0,0,4.146,8.612-5.375,18.135C188.613,202.227,177.125,197.902,177.125,197.902z"/>
</g>
<g>
	<circle opacity="0.5" fill="#FFFFFF" cx="61.873" cy="66.125" r="20"/>
	<path opacity="0.5" fill="#FFFFFF" d="M50.873,80.152c3,2.249,6.729,3.581,10.77,3.581c9.934,0,17.986-8.052,17.986-17.984
		c0-3.249-0.863-6.298-2.371-8.928c0,0,4.148,8.612-5.375,18.135C62.359,84.477,50.873,80.152,50.873,80.152z"/>
</g>
</svg>
